<?xml version="1.0"?>
<svg xmlns="http://www.w3.org/2000/svg" xmlns:xlink="http://www.w3.org/1999/xlink" version="1.1" viewBox="0 0 192 192" width="32px" height="32px"><g fill="none" fill-rule="nonzero" stroke="none" stroke-width="1" stroke-linecap="butt" stroke-linejoin="miter" stroke-miterlimit="10" stroke-dasharray="" stroke-dashoffset="0" font-family="none" font-weight="none" font-size="none" text-anchor="none" style="mix-blend-mode: normal"><path d="M0,192v-192h192v192z" fill="none"/><g fill="#95a5a6"><g id="surface1"><path d="M143.4375,23.8125c-6.28125,0 -12.5625,2.4375 -17.4375,7.3125l-94.875,94.875l-0.375,1.875l-6.5625,33l-1.875,8.8125l8.8125,-1.875l33,-6.5625l1.875,-0.375l94.875,-94.875c9.75,-9.75 9.75,-25.125 0,-34.875c-4.875,-4.875 -11.15625,-7.3125 -17.4375,-7.3125zM143.4375,35.25c3.02344,0 6.07031,1.38281 9,4.3125c5.83594,5.83594 5.83594,12.16406 0,18l-4.3125,4.125l-17.8125,-17.8125l4.125,-4.3125c2.92969,-2.92969 5.97656,-4.3125 9,-4.3125zM121.875,52.3125l17.8125,17.8125l-72.5625,72.5625c-3.9375,-7.6875 -10.125,-13.875 -17.8125,-17.8125zM41.625,134.625c7.19531,2.90625 12.84375,8.55469 15.75,15.75l-19.6875,3.9375z"/></g></g></g></svg>
