<?xml version="1.0"?>
<svg xmlns="http://www.w3.org/2000/svg" xmlns:xlink="http://www.w3.org/1999/xlink" version="1.1" viewBox="0 0 192 192" width="50px" height="50px"><g fill="none" fill-rule="nonzero" stroke="none" stroke-width="1" stroke-linecap="butt" stroke-linejoin="miter" stroke-miterlimit="10" stroke-dasharray="" stroke-dashoffset="0" font-family="none" font-weight="none" font-size="none" text-anchor="none" style="mix-blend-mode: normal"><path d="M0,192v-192h192v192z" fill="none"/><g fill="yellow"><g id="surface1"><path d="M95.52,12.72c-18.015,0.405 -29.415,7.695 -34.32,18.96c-4.665,10.725 -3.69,24.24 -0.36,38.28c-1.785,2.1 -3.255,5.055 -2.88,9.48v0.24c0.645,4.68 2.055,7.98 3.84,10.32c0.855,1.11 2.07,1.17 3.12,1.8c0.93,5.235 3.015,10.23 5.4,14.16c0.12,0.57 0.36,1.095 0.72,1.56c0,0 0.39,0.495 0.48,0.6c1.2,1.8 1.8,4.305 1.8,7.08c0,2.955 -0.045,5.7 -0.36,8.76c-1.155,2.91 -4.035,5.235 -8.64,7.56c-4.815,2.43 -11.115,4.665 -17.52,7.44c-6.405,2.775 -12.9,6.105 -18.12,11.4c-5.22,5.295 -8.955,12.63 -9.48,22.2l-0.24,4.08h154.08l-0.24,-4.08c-0.525,-9.57 -4.17,-16.89 -9.36,-22.2c-5.19,-5.31 -11.715,-8.625 -18.12,-11.4c-6.405,-2.775 -12.75,-4.995 -17.64,-7.44c-4.74,-2.37 -7.71,-4.785 -9,-7.8c-0.3,-3.63 -0.36,-6.495 -0.36,-9.72c0,-2.055 0.705,-3.915 1.92,-5.76c0.03,-0.045 0.09,-0.075 0.12,-0.12c0.015,-0.03 0.24,-0.24 0.24,-0.24c0.48,-0.495 0.81,-1.125 0.96,-1.8c2.325,-3.99 4.26,-9.06 5.16,-14.16c1.2,-0.63 2.55,-0.705 3.48,-1.92c1.845,-2.415 2.925,-5.85 3.36,-10.56c0.345,-4.065 -0.825,-7.02 -2.64,-9.24c1.995,-6.15 4.365,-15.99 3.6,-26.04c-0.42,-5.52 -1.875,-11.025 -5.16,-15.6c-2.97,-4.14 -7.77,-6.975 -13.8,-8.28c-4.065,-5.43 -11.445,-7.56 -19.92,-7.56zM95.64,20.4c0.045,0 0.075,0 0.12,0c7.665,0.03 12.57,2.19 14.16,4.92l0.96,1.68l1.92,0.24c5.28,0.735 8.175,2.775 10.32,5.76c2.145,2.985 3.375,7.155 3.72,11.76c0.705,9.225 -1.965,20.04 -3.72,24.96l-1.2,3.24l3,1.56c-0.03,0.105 1.23,1.38 1.08,4.2c0,0.06 0,0.06 0,0.12c-0.36,3.615 -1.29,5.655 -1.92,6.48c-0.645,0.84 -0.975,0.72 -0.84,0.72h-3.36l-0.48,3.36c-0.66,4.98 -3.195,11.25 -5.4,14.4h-0.12c-0.225,0.33 -0.39,0.72 -0.6,1.08c-1.005,1.17 -2.52,2.715 -4.68,4.56c-3.585,3.06 -8.34,5.76 -12.6,5.76c-4.23,0 -9.03,-2.835 -12.72,-6c-3.195,-2.745 -5.1,-5.1 -5.64,-5.76c-0.015,-0.03 0.015,-0.09 0,-0.12c-2.265,-3.27 -4.86,-9 -5.52,-13.92l-0.36,-3.36h-3.12c-0.135,-0.06 -0.495,-0.255 -0.84,-0.72c-0.675,-0.885 -1.635,-2.955 -2.16,-6.48c0,-0.075 0,-0.045 0,-0.12c-0.015,-0.06 0.015,-0.06 0,-0.12c-0.06,-2.91 1.74,-4.53 1.44,-4.32l2.16,-1.56l-0.6,-2.64c-3.54,-13.995 -4.095,-26.67 -0.36,-35.28c3.735,-8.58 11.295,-14.01 27.36,-14.4zM81,117.24c4.05,2.985 9.12,5.64 15,5.64c5.76,0 10.695,-2.52 14.64,-5.4c0.015,2.34 0.09,4.74 0.36,7.68v0.48l0.24,0.48c0.675,1.77 1.635,3.27 2.76,4.68c-0.045,0.15 -0.09,0.315 -0.12,0.48c0,0 -0.915,2.52 -3.6,5.28c-2.685,2.76 -6.855,5.52 -14.28,5.52c-7.395,0 -11.715,-2.88 -14.52,-5.76c-2.805,-2.88 -3.72,-5.52 -3.72,-5.52c1.11,-1.44 2.025,-2.985 2.64,-4.8l0.24,-0.72c0.33,-2.91 0.36,-5.535 0.36,-8.04zM120,136.08c1.35,0.87 2.745,1.68 4.2,2.4c5.61,2.79 11.97,4.95 18,7.56c6.03,2.61 11.655,5.565 15.72,9.72c3.24,3.315 5.19,7.725 6.24,13.2h-136.32c1.05,-5.475 2.985,-9.885 6.24,-13.2c4.08,-4.155 9.81,-7.11 15.84,-9.72c6.03,-2.61 12.33,-4.755 17.88,-7.56c1.38,-0.705 2.79,-1.44 4.08,-2.28c0.855,1.545 2.175,3.555 4.08,5.52c3.915,4.035 10.545,8.04 20.04,8.04c9.465,0 15.96,-3.96 19.8,-7.92c2.1,-2.16 3.375,-4.17 4.2,-5.76z"/></g></g></g></svg>
